<?xml version="1.0" encoding="UTF-8" standalone="no"?>
<svg width="25px" height="25px" viewBox="0 0 25 25" version="1.1" xmlns="http://www.w3.org/2000/svg" xmlns:xlink="http://www.w3.org/1999/xlink">
    <!-- Generator: Sketch 42 (36781) - http://www.bohemiancoding.com/sketch -->
    <title>github</title>
    <desc>Created with Sketch.</desc>
    <defs></defs>
    <g id="Home" stroke="none" stroke-width="1" fill="none" fill-rule="evenodd">
        <g id="Desktop" transform="translate(-316.000000, -3402.000000)" fill="#FFFFFF">
            <g id="Footer" transform="translate(81.000000, 3076.000000)">
                <g id="github" transform="translate(235.000000, 326.000000)">
                    <path d="M24.8571725,12.6428448 C24.8571725,5.78122947 19.2902016,0.214258552 12.4285862,0.214258552 C5.56697092,0.214258552 0,5.78122947 0,12.6428448 C0,18.1289004 3.5602721,22.7896203 8.49610388,24.4402919 C9.12724302,24.5535733 9.35380579,24.16518 9.35380579,23.8415189 C9.35380579,23.5502239 9.33762274,22.5630575 9.33762274,21.527342 C9.33762274,21.527342 5.87444897,22.2717625 5.14621149,20.054684 C5.14621149,20.054684 4.57980457,18.6143921 3.77065182,18.2421818 C3.77065182,18.2421818 2.63783797,17.4653952 3.85156709,17.4815782 C3.85156709,17.4815782 5.08147927,17.5786766 5.76116758,18.7600396 C6.84543227,20.6696401 8.65793443,20.1194162 9.36998885,19.7957551 C9.48327023,18.9866024 9.80693133,18.4525615 10.1629585,18.1289004 C7.39565614,17.8214224 4.49888929,16.7533408 4.49888929,11.9955226 C4.49888929,10.636146 4.98438094,9.51951518 5.77735064,8.66181326 C5.6478862,8.33815216 5.22712677,7.07587387 5.89063202,5.36047004 C6.9425306,5.03680894 9.32143968,6.63893139 9.32143968,6.63893139 C10.308606,6.36381945 11.3766877,6.21817196 12.4285862,6.21817196 C13.4804848,6.21817196 14.5485665,6.36381945 15.5357328,6.63893139 C15.5357328,6.63893139 17.9146419,5.03680894 18.9503574,5.36047004 C19.6300457,7.07587387 19.2092863,8.33815216 19.0798219,8.66181326 C19.8727915,9.51951518 20.3582832,10.636146 20.3582832,11.9955226 C20.3582832,16.7695238 17.4453333,17.8214224 14.6780309,18.1289004 C15.1311564,18.5172938 15.5195498,19.2617143 15.5195498,20.4268943 L15.5195498,23.8415189 C15.5195498,24.16518 15.7299295,24.5535733 16.3610686,24.4402919 C21.2969004,22.7896203 24.8571725,18.1289004 24.8571725,12.6428448 Z"></path>
                </g>
            </g>
        </g>
    </g>
</svg>