<?xml version="1.0" encoding="UTF-8" standalone="no"?>
<svg width="217px" height="57px" viewBox="0 0 217 57" version="1.1" xmlns="http://www.w3.org/2000/svg" xmlns:xlink="http://www.w3.org/1999/xlink">
    <!-- Generator: Sketch 42 (36781) - http://www.bohemiancoding.com/sketch -->
    <title>logo-bw</title>
    <desc>Created with Sketch.</desc>
    <defs></defs>
    <g id="Apply" stroke="none" stroke-width="1" fill="none" fill-rule="evenodd">
        <g id="Desktop" transform="translate(-201.000000, -127.000000)" fill-rule="nonzero" fill="#FFFFFF">
            <g id="logo-bw" transform="translate(200.000000, 127.000000)">
                <g id="g4" transform="translate(0.454623, 0.639454)">
                    <path d="M16.7037173,31.2277895 L17.9345175,29.9950326 L19.6928035,28.2339512 L21.4510895,26.4728698 L23.2093756,24.7117884 L24.9676616,22.950707 L26.7259476,21.1896256 L28.4842337,19.4285442 L30.2425197,17.6674628 L32.0008057,15.9063814 L33.7590917,14.1453 L35.5173778,12.3842186 L37.2756638,10.6231372 L39.0339498,8.86205581 L40.7922358,7.10097442 L42.0230361,5.86821744 C33.9349203,-0.119459302 22.3302326,0.761081395 14.2421168,7.98151512 C11.6046878,15.7302733 12.4838308,24.3595721 16.7037173,31.2277895 L16.7037173,31.2277895 Z" id="path6"></path>
                    <path d="M49.0561802,42.8509267 C56.2651529,34.9260605 57.3201245,23.3029233 52.0452664,14.1453 L50.8144662,15.378057 L49.0561802,17.1391384 L47.2978942,18.9002198 L45.5396081,20.6613012 L43.7813221,22.4223826 L42.0230361,24.183464 L40.26475,25.9445453 L38.506464,27.7056267 L36.748178,29.4667081 L34.989892,31.2277895 L33.2316059,32.9888709 L31.4733199,34.7499523 L29.7150339,36.5110337 L27.9567478,38.2721151 L26.7259476,39.5048721 C32.7041201,44.6120081 41.3197217,45.4925488 49.0561802,42.8509267 L49.0561802,42.8509267 Z" id="path8"></path>
                    <path d="M55.9134957,42.3226023 C46.2429225,48.4863872 33.7590917,48.4863872 23.91269,42.3226023 L23.3852042,42.8509267 L25.1434902,44.6120081 L23.3852042,46.3730895 L25.1434902,48.1341709 L23.3852042,49.8952523 L21.6269181,48.1341709 L19.8686321,49.8952523 L18.1103461,48.1341709 L16.3520601,46.3730895 L14.593774,48.1341709 L12.6596594,50.0713605 C24.2643472,59.0528756 41.1438931,58.1723349 51.8694378,47.6058465 C53.2760666,45.8447651 54.6826955,44.0836837 55.9134957,42.3226023 Z" id="path10"></path>
                    <path d="M8.79143014,31.9322221 L10.5497162,33.6933035 L12.3080022,31.9322221 L14.0662882,33.6933035 L14.593774,33.1649791 C8.43977293,23.4790314 8.43977293,10.9753535 14.593774,1.11329767 C12.835488,2.34605465 11.077202,3.57881163 9.49474455,5.16378488 C-1.23080022,15.9063814 -2.10994323,32.6366547 7.03314411,44.4359 L8.61560154,42.8509267 L10.3738876,41.0898453 L8.61560154,39.328764 L6.85731551,37.5676826 L8.61560154,35.8066012 L6.85731551,34.0455198 L8.79143014,31.9322221 Z" id="path12"></path>
                    <polygon id="polygon14" points="17.9345175 37.3915744 17.9345175 37.3915744 19.6928035 35.4543849 19.6928035 35.4543849 21.6269181 33.6933035 19.6928035 31.9322221 18.1103461 33.5171953 17.9345175 33.6933035 16.1762315 35.2782767 16.0004029 35.4543849 14.2421168 37.3915744 12.3080022 35.4543849 10.5497162 33.6933035 8.79143014 35.4543849 10.5497162 37.3915744 12.3080022 39.1526558 14.2421168 41.0898453 12.3080022 42.8509267 10.5497162 44.6120081 8.79143014 46.5491977 8.79143014 46.5491977 6.85731551 48.3102791 5.09902948 50.2474686 3.16491485 52.00855 5.09902948 53.9457395 6.85731551 52.00855 8.79143014 50.2474686 10.5497162 48.3102791 10.5497162 48.3102791 12.3080022 46.5491977 14.2421168 44.6120081 16.0004029 42.8509267 17.9345175 44.6120081 19.6928035 46.5491977 21.6269181 48.3102791 23.3852042 46.5491977 21.6269181 44.6120081 19.6928035 42.8509267 21.6269181 41.0898453 21.8027467 40.9137372 23.3852042 39.1526558 23.5610328 38.9765477 25.1434902 37.3915744 23.3852042 35.4543849 21.6269181 37.3915744 21.6269181 37.3915744 19.6928035 39.1526558 19.6928035 39.1526558 17.9345175 41.0898453 16.0004029 39.1526558"></polygon>
                    <polygon id="polygon16" points="32.5282915 29.9950326 30.7700055 28.2339512 28.8358909 29.9950326 27.0776048 31.9322221 25.1434902 33.6933035 27.0776048 35.4543849 28.8358909 33.6933035 30.7700055 31.9322221"></polygon>
                    <polygon id="polygon18" points="32.5282915 26.2967616 34.2865775 28.2339512 36.2206922 26.2967616 37.9789782 24.5356802 39.9130928 22.5984907 37.9789782 20.8374093 36.2206922 22.5984907 34.2865775 24.5356802"></polygon>
                    <polygon id="polygon20" points="39.9130928 19.0763279 41.6713789 20.8374093 43.6054935 19.0763279 45.3637795 17.1391384 47.1220656 15.378057 45.3637795 13.4408674 43.6054935 15.378057 41.6713789 17.1391384"></polygon>
                    <polygon id="polygon22" points="52.7485808 6.22043372 50.8144662 7.98151512 49.0561802 9.91870465 49.0561802 9.91870465 47.1220656 11.679786 49.0561802 13.4408674 50.6386376 11.8558942 50.8144662 11.679786 52.7485808 9.91870465 54.5068669 7.98151512"></polygon>
                    <rect id="rect24" transform="translate(54.616430, 2.502442) rotate(45.000000) translate(-54.616430, -2.502442) " x="53.2977278" y="1.18164379" width="2.63740375" height="2.64159676"></rect>
                    <polygon id="polygon26" points="21.6269181 29.9950326 23.3852042 31.9322221 25.1434902 29.9950326 27.0776048 28.2339512 28.8358909 26.2967616 27.0776048 24.5356802 25.1434902 26.2967616 23.3852042 28.2339512"></polygon>
                    <polygon id="polygon28" points="28.8358909 22.5984907 30.7700055 24.5356802 32.5282915 22.5984907 34.2865775 20.8374093 36.2206922 19.0763279 34.2865775 17.1391384 32.5282915 19.0763279 30.7700055 20.8374093"></polygon>
                    <polygon id="polygon30" points="36.2206922 15.378057 37.9789782 17.1391384 39.9130928 15.378057 41.6713789 13.4408674 43.6054935 11.679786 41.6713789 9.91870465 39.9130928 11.679786 37.9789782 13.4408674"></polygon>
                    <polygon id="polygon32" points="49.0561802 2.52216279 47.1220656 4.28324419 45.3637795 6.22043372 45.1879509 6.39654186 43.6054935 7.98151512 45.3637795 9.91870465 47.1220656 7.98151512 47.1220656 7.98151512 49.0561802 6.22043372 50.8144662 4.28324419"></polygon>
                </g>
                <g id="g34" transform="translate(65.126843, 0.755373)">
                    <polygon id="polygon38" points="57.3933646 0.263451351 57.3933646 14.4898243 46.6090045 0.263451351 39.770142 10.2746027 39.770142 18.4415945 46.6090045 26.6085864 46.6090045 11.3284081 57.6563978 26.3451351 64.2322271 26.3451351 64.2322271 0.263451351"></polygon>
                    <path d="M60.0236963,42.4156675 C60.0236963,34.5121269 66.0734593,29.2430999 73.7014214,29.2430999 C79.7511844,29.2430999 83.1706156,32.6679675 84.7488147,36.092835 L79.225118,38.7273485 C78.4360185,36.6197377 76.3317531,35.0390296 73.7014214,35.0390296 C69.4928906,35.0390296 66.5995257,38.2004458 66.5995257,42.4156675 C66.5995257,46.6308891 69.4928906,49.7923053 73.7014214,49.7923053 C76.06872,49.7923053 78.4360185,48.2115972 79.225118,46.1039864 L84.7488147,48.7384999 C83.1706156,51.8999161 79.7511844,55.588235 73.7014214,55.588235 C72.1232223,55.588235 70.8080565,55.3247836 69.4928906,55.0613323 L60.0236963,43.4694729 L60.0236963,42.4156675 L60.0236963,42.4156675 Z" id="path40"></path>
                    <polygon id="polygon42" points="34.2464453 14.7532756 67.3886252 55.588235 57.919431 55.588235 29.5118482 21.6030108 26.3554501 26.6085864 26.3554501 55.588235 18.9905212 55.588235 18.9905212 0.263451351 26.3554501 0.263451351 26.3554501 13.6994702 35.5616112 0.263451351 44.2417059 0.263451351"></polygon>
                    <polygon id="polygon44" points="33.720379 55.588235 35.0355448 52.9537215 53.1848338 52.9537215 48.1872035 46.8943404 37.9289097 46.8943404 41.8744073 39.2542512 36.876777 33.4583215 26.3554501 55.588235"></polygon>
                    <polygon id="path46" points="66.3364925 26.6085864 66.3364925 0.263451351 73.7014214 0.263451351 73.7014214 26.6085864"></polygon>
                    <path d="M76.3317531,13.4360189 C76.3317531,5.26902701 82.6445493,0.263451351 90.0094782,0.263451351 C95.796208,0.263451351 99.2156393,3.16141621 100.793838,6.32283242 L95.2701416,9.22079727 C94.218009,7.64008917 92.3767767,6.05938106 90.0094782,6.05938106 C85.8009474,6.05938106 82.9075825,9.22079727 82.9075825,13.4360189 C82.9075825,17.6512405 85.8009474,20.8126567 90.0094782,20.8126567 C91.8507104,20.8126567 93.6919426,20.0223026 94.7440753,19.2319486 L94.7440753,17.1243378 L88.9573455,17.1243378 L88.9573455,11.3284081 L101.319905,11.3284081 L101.319905,21.3395594 C98.6895729,24.2375243 94.7440753,26.3451351 90.0094782,26.3451351 C82.3815161,26.6085864 76.3317531,21.3395594 76.3317531,13.4360189 L76.3317531,13.4360189 Z" id="path48"></path>
                    <polygon id="path50" points="121.573459 26.6085864 121.573459 16.0705324 110.526066 16.0705324 110.526066 26.6085864 103.687203 26.6085864 103.687203 0.263451351 110.526066 0.263451351 110.526066 10.0111513 121.573459 10.0111513 121.573459 0.263451351 128.412322 0.263451351 128.412322 26.6085864"></polygon>
                    <polygon id="path52" points="138.407582 26.3451351 138.407582 5.79592971 131.042653 5.79592971 131.042653 0 152.611374 0 152.611374 5.79592971 145.246445 5.79592971 145.246445 26.3451351"></polygon>
                    <polygon id="path54" points="19.5165876 45.840535 7.94312791 45.840535 7.94312791 55.0613323 0.578199043 55.0613323 0.578199043 28.9796486 7.94312791 28.9796486 7.94312791 39.5177026 19.5165876 39.5177026"></polygon>
                    <polygon id="path56" points="102.898104 55.588235 96.0592412 45.5770837 94.218009 47.6846945 94.218009 55.3247836 87.3791464 55.3247836 87.3791464 28.9796486 94.218009 28.9796486 94.218009 39.7811539 102.372037 28.9796486 110.789099 28.9796486 100.530805 41.3618621 111.315165 55.3247836 102.898104 55.3247836"></polygon>
                    <path d="M110.526066,51.3730134 L113.945497,46.3674377 C115.786729,48.2115972 118.680094,49.7923053 122.099525,49.7923053 C124.203791,49.7923053 125.78199,49.0019512 125.78199,47.6846945 C125.78199,44.2598269 111.315165,47.1577918 111.315165,37.1466404 C111.315165,32.9314188 114.99763,28.9796486 121.310426,28.9796486 C125.518957,28.9796486 128.938388,30.2969053 131.56872,32.6679675 L127.886255,37.6735431 C125.78199,35.8293837 122.888625,35.0390296 120.521326,35.0390296 C118.680094,35.0390296 117.890995,35.5659323 117.890995,36.8831891 C117.890995,40.0446053 132.357819,37.6735431 132.357819,47.1577918 C132.357819,52.1633674 128.675355,55.588235 121.836492,55.588235 C116.575829,55.588235 112.893364,53.7440755 110.526066,51.3730134 Z" id="path58"></path>
                </g>
            </g>
        </g>
    </g>
</svg>