<?xml version="1.0" encoding="UTF-8" standalone="no"?>
<svg width="223px" height="59px" viewBox="0 0 223 59" version="1.1" xmlns="http://www.w3.org/2000/svg" xmlns:xlink="http://www.w3.org/1999/xlink">
    <!-- Generator: Sketch 42 (36781) - http://www.bohemiancoding.com/sketch -->
    <title>logo</title>
    <desc>Created with Sketch.</desc>
    <defs></defs>
    <g id="Home" stroke="none" stroke-width="1" fill="none" fill-rule="evenodd">
        <g id="Desktop" transform="translate(-231.000000, -133.000000)" fill-rule="nonzero" fill="#DDC04A">
            <g id="Jumbotron" transform="translate(81.000000, 105.000000)">
                <g id="logo" transform="translate(149.000000, 28.000000)">
                    <g id="g4" transform="translate(0.498275, 0.723246)">
                        <path d="M17.1541703,32.250894 L18.4181618,30.9790018 L20.2238639,29.1620131 L22.0295661,27.3450244 L23.8352682,25.5280356 L25.6409703,23.7110469 L27.4466725,21.8940581 L29.2523746,20.0770694 L31.0580767,18.2600807 L32.8637789,16.4430919 L34.669481,14.6261032 L36.4751832,12.8091144 L38.2808853,10.9921257 L40.0865874,9.17513695 L41.8922896,7.35814821 L43.1562811,6.08625609 C34.8500512,-0.0915056294 22.9324171,0.816988741 14.6261873,8.26664258 C11.9176341,16.261393 12.8204852,25.1646379 17.1541703,32.250894 L17.1541703,32.250894 Z" id="path6"></path>
                        <path d="M50.3790896,44.2430197 C57.7824684,36.0665703 58.8658897,24.0744446 53.4487832,14.6261032 L52.1847917,15.8979953 L50.3790896,17.714984 L48.5733875,19.5319728 L46.7676853,21.3489615 L44.9619832,23.1659503 L43.1562811,24.982939 L41.3505789,26.7999277 L39.5448768,28.6169165 L37.7391747,30.4339052 L35.9334725,32.250894 L34.1277704,34.0678827 L32.3220682,35.8848714 L30.5163661,37.7018602 L28.710664,39.5188489 L27.4466725,40.790741 C33.5860597,46.0600084 42.4340002,46.9685028 50.3790896,44.2430197 L50.3790896,44.2430197 Z" id="path8"></path>
                        <path d="M57.4213279,43.697923 C47.4899662,50.0573836 34.669481,50.0573836 24.5575491,43.697923 L24.0158384,44.2430197 L25.8215406,46.0600084 L24.0158384,47.8769971 L25.8215406,49.6939859 L24.0158384,51.5109746 L22.2101363,49.6939859 L20.4044341,51.5109746 L18.598732,49.6939859 L16.7930299,47.8769971 L14.9873277,49.6939859 L13.0010554,51.6926735 C24.9186895,60.9593161 42.25343,60.0508217 53.268213,49.1488893 C54.7127747,47.3319005 56.1573364,45.5149118 57.4213279,43.697923 Z" id="path10"></path>
                        <path d="M9.02851068,32.9776895 L10.8342128,34.7946782 L12.639915,32.9776895 L14.4456171,34.7946782 L14.9873277,34.2495816 C8.66737026,24.2561435 8.66737026,11.3555234 14.9873277,1.18038649 C13.1816256,2.45227861 11.3759235,3.72417073 9.75079154,5.35946059 C-1.2639915,16.4430919 -2.16684256,33.704485 7.22280855,45.8783095 L8.84794047,44.2430197 L10.6536426,42.4260309 L8.84794047,40.6090422 L7.04223833,38.7920534 L8.84794047,36.9750647 L7.04223833,35.1580759 L9.02851068,32.9776895 Z" id="path12"></path>
                        <polygon id="polygon14" points="18.4181618 38.6103546 18.4181618 38.6103546 20.2238639 36.6116669 20.2238639 36.6116669 22.2101363 34.7946782 20.2238639 32.9776895 18.598732 34.6129793 18.4181618 34.7946782 16.6124597 36.4299681 16.4318894 36.6116669 14.6261873 38.6103546 12.639915 36.6116669 10.8342128 34.7946782 9.02851068 36.6116669 10.8342128 38.6103546 12.639915 40.4273433 14.6261873 42.4260309 12.639915 44.2430197 10.8342128 46.0600084 9.02851068 48.058696 9.02851068 48.058696 7.04223833 49.8756848 5.2365362 51.8743724 3.25026385 53.6913611 5.2365362 55.6900487 7.04223833 53.6913611 9.02851068 51.8743724 10.8342128 49.8756848 10.8342128 49.8756848 12.639915 48.058696 14.6261873 46.0600084 16.4318894 44.2430197 18.4181618 46.0600084 20.2238639 48.058696 22.2101363 49.8756848 24.0158384 48.058696 22.2101363 46.0600084 20.2238639 44.2430197 22.2101363 42.4260309 22.3907065 42.244332 24.0158384 40.4273433 24.1964086 40.2456444 25.8215406 38.6103546 24.0158384 36.6116669 22.2101363 38.6103546 22.2101363 38.6103546 20.2238639 40.4273433 20.2238639 40.4273433 18.4181618 42.4260309 16.4318894 40.4273433"></polygon>
                        <polygon id="polygon16" points="33.4054895 30.9790018 31.5997874 29.1620131 29.613515 30.9790018 27.8078129 32.9776895 25.8215406 34.7946782 27.8078129 36.6116669 29.613515 34.7946782 31.5997874 32.9776895"></polygon>
                        <polygon id="polygon18" points="33.4054895 27.1633255 35.2111917 29.1620131 37.197464 27.1633255 39.0031661 25.3463367 40.9894385 23.3476491 39.0031661 21.5306604 37.197464 23.3476491 35.2111917 25.3463367"></polygon>
                        <polygon id="polygon20" points="40.9894385 19.7136716 42.7951406 21.5306604 44.781413 19.7136716 46.5871151 17.714984 48.3928173 15.8979953 46.5871151 13.8993077 44.781413 15.8979953 42.7951406 17.714984"></polygon>
                        <polygon id="polygon22" points="54.1710641 6.44965384 52.1847917 8.26664258 50.3790896 10.2653302 50.3790896 10.2653302 48.3928173 12.0823189 50.3790896 13.8993077 52.0042215 12.2640178 52.1847917 12.0823189 54.1710641 10.2653302 55.9767662 8.26664258"></polygon>
                        <rect id="rect24" transform="translate(56.089284, 2.613631) rotate(45.000000) translate(-56.089284, -2.613631) " x="54.73502" y="1.25090232" width="2.70852723" height="2.72545697"></rect>
                        <polygon id="polygon26" points="22.2101363 30.9790018 24.0158384 32.9776895 25.8215406 30.9790018 27.8078129 29.1620131 29.613515 27.1633255 27.8078129 25.3463367 25.8215406 27.1633255 24.0158384 29.1620131"></polygon>
                        <polygon id="polygon28" points="29.613515 23.3476491 31.5997874 25.3463367 33.4054895 23.3476491 35.2111917 21.5306604 37.197464 19.7136716 35.2111917 17.714984 33.4054895 19.7136716 31.5997874 21.5306604"></polygon>
                        <polygon id="polygon30" points="37.197464 15.8979953 39.0031661 17.714984 40.9894385 15.8979953 42.7951406 13.8993077 44.781413 12.0823189 42.7951406 10.2653302 40.9894385 12.0823189 39.0031661 13.8993077"></polygon>
                        <polygon id="polygon32" points="50.3790896 2.63397748 48.3928173 4.45096622 46.5871151 6.44965384 46.4065449 6.63135271 44.781413 8.26664258 46.5871151 10.2653302 48.3928173 8.26664258 48.3928173 8.26664258 50.3790896 6.44965384 52.1847917 4.45096622"></polygon>
                    </g>
                    <g id="g34" transform="translate(66.883134, 0.874591)">
                        <polygon id="polygon38" points="58.9724968 0.271814886 58.9724968 14.9498187 47.8973124 0.271814886 40.8740246 10.6007805 40.8740246 19.027042 47.8973124 27.4533034 47.8973124 11.6880401 59.2426233 27.1814886 65.9957846 27.1814886 65.9957846 0.271814886"></polygon>
                        <path d="M61.6737613,43.7621966 C61.6737613,35.60775 67.8866697,30.1714523 75.7203368,30.1714523 C81.9332451,30.1714523 85.444889,33.7050458 87.0656477,37.2386393 L81.3929922,39.9567882 C80.5826129,37.7822691 78.4216013,36.1513798 75.7203368,36.1513798 C71.3983136,36.1513798 68.4269226,39.4131584 68.4269226,43.7621966 C68.4269226,48.1112347 71.3983136,51.3730134 75.7203368,51.3730134 C78.1514748,51.3730134 80.5826129,49.7421241 81.3929922,47.567605 L87.0656477,50.2857538 C85.444889,53.5475325 81.9332451,57.3529409 75.7203368,57.3529409 C74.0995781,57.3529409 72.7489458,57.081126 71.3983136,56.8093111 L61.6737613,44.8494561 L61.6737613,43.7621966 L61.6737613,43.7621966 Z" id="path40"></path>
                        <polygon id="polygon42" points="35.2013692 15.2216336 69.237302 57.3529409 59.5127497 57.3529409 30.3390931 22.2888206 27.0975757 27.4533034 27.0975757 57.3529409 19.534035 57.3529409 19.534035 0.271814886 27.0975757 0.271814886 27.0975757 14.1343741 36.5520014 0.271814886 45.4661743 0.271814886"></polygon>
                        <polygon id="polygon44" points="34.6611163 57.3529409 36.0117485 54.634792 54.6504736 54.634792 49.5180711 48.3830496 38.9831395 48.3830496 43.0350362 40.500418 37.9026337 34.5204905 27.0975757 57.3529409"></polygon>
                        <polygon id="path46" points="68.1567962 27.4533034 68.1567962 0.271814886 75.7203368 0.271814886 75.7203368 27.4533034"></polygon>
                        <path d="M78.4216013,13.8625592 C78.4216013,5.43629771 84.9046361,0.271814886 92.4681767,0.271814886 C98.4109586,0.271814886 101.922603,3.26177863 103.543361,6.52355725 L97.8707057,9.513521 C96.7901999,7.88263168 94.8993148,6.25174237 92.4681767,6.25174237 C88.1461535,6.25174237 85.1747626,9.513521 85.1747626,13.8625592 C85.1747626,18.2115973 88.1461535,21.473376 92.4681767,21.473376 C94.3590619,21.473376 96.249947,20.6579313 97.3304528,19.8424866 L97.3304528,17.6679676 L91.3876709,17.6679676 L91.3876709,11.6880401 L104.083614,11.6880401 L104.083614,22.0170057 C101.38235,25.0069695 97.3304528,27.1814886 92.4681767,27.1814886 C84.6345097,27.4533034 78.4216013,22.0170057 78.4216013,13.8625592 L78.4216013,13.8625592 Z" id="path48"></path>
                        <polygon id="path50" points="124.883351 27.4533034 124.883351 16.580708 113.53804 16.580708 113.53804 27.4533034 106.514752 27.4533034 106.514752 0.271814886 113.53804 0.271814886 113.53804 10.3289657 124.883351 10.3289657 124.883351 0.271814886 131.906639 0.271814886 131.906639 27.4533034"></polygon>
                        <polygon id="path52" points="142.171444 27.1814886 142.171444 5.97992748 134.607903 5.97992748 134.607903 0 156.758272 0 156.758272 5.97992748 149.194731 5.97992748 149.194731 27.1814886"></polygon>
                        <polygon id="path54" points="20.0742879 47.2957901 8.1887241 47.2957901 8.1887241 56.8093111 0.625183483 56.8093111 0.625183483 29.8996374 8.1887241 29.8996374 8.1887241 40.7722328 20.0742879 40.7722328"></polygon>
                        <polygon id="path56" points="105.704373 57.3529409 98.6810851 47.0239752 96.7901999 49.1984943 96.7901999 57.081126 89.7669122 57.081126 89.7669122 29.8996374 96.7901999 29.8996374 96.7901999 41.0440477 105.16412 29.8996374 113.808166 29.8996374 103.273235 42.674937 114.348419 57.081126 105.704373 57.081126"></polygon>
                        <path d="M113.53804,53.0039027 L117.049684,47.8394199 C118.940569,49.7421241 121.91196,51.3730134 125.423604,51.3730134 C127.584615,51.3730134 129.205374,50.5575687 129.205374,49.1984943 C129.205374,45.6649008 114.348419,48.6548645 114.348419,38.3258989 C114.348419,33.9768607 118.13019,29.8996374 124.613224,29.8996374 C128.935248,29.8996374 132.446891,31.2587118 135.148156,33.7050458 L131.366386,38.8695286 C129.205374,36.9668244 126.233983,36.1513798 123.802845,36.1513798 C121.91196,36.1513798 121.101581,36.6950096 121.101581,38.054084 C121.101581,41.3158626 135.958535,38.8695286 135.958535,48.6548645 C135.958535,53.8193473 132.176765,57.3529409 125.153477,57.3529409 C119.750948,57.3529409 115.969178,55.4502367 113.53804,53.0039027 Z" id="path58"></path>
                    </g>
                </g>
            </g>
        </g>
    </g>
</svg>