<?xml version="1.0" encoding="UTF-8" standalone="no"?>
<svg width="26px" height="21px" viewBox="0 0 26 21" version="1.1" xmlns="http://www.w3.org/2000/svg" xmlns:xlink="http://www.w3.org/1999/xlink">
    <!-- Generator: Sketch 42 (36781) - http://www.bohemiancoding.com/sketch -->
    <title>twitter</title>
    <desc>Created with Sketch.</desc>
    <defs></defs>
    <g id="Home" stroke="none" stroke-width="1" fill="none" fill-rule="evenodd">
        <g id="Desktop" transform="translate(-268.000000, -3404.000000)" fill="#FFFFFF">
            <g id="Footer" transform="translate(81.000000, 3076.000000)">
                <path d="M212.537978,330.745514 C211.59936,331.15009 210.579828,331.441385 209.527929,331.554667 C210.612194,330.907345 211.43753,329.887812 211.825923,328.674083 C210.822574,329.272856 209.68976,329.709798 208.508397,329.936361 C207.553597,328.916829 206.19422,328.28569 204.689196,328.28569 C201.792429,328.28569 199.462069,330.632233 199.462069,333.512816 C199.462069,333.917393 199.510618,334.321969 199.591534,334.710362 C195.254475,334.4838 191.386725,332.412369 188.813619,329.24049 C188.360494,330.017276 188.101565,330.907345 188.101565,331.878328 C188.101565,333.69083 189.023999,335.292952 190.431925,336.23157 C189.574223,336.199203 188.76507,335.956458 188.069199,335.568064 L188.069199,335.632797 C188.069199,338.173536 189.865518,340.277333 192.26061,340.762825 C191.823667,340.876106 191.354359,340.940839 190.88505,340.940839 C190.545206,340.940839 190.221545,340.908472 189.897884,340.859923 C190.561389,342.931354 192.487173,344.436378 194.785166,344.484928 C192.988847,345.892853 190.739403,346.718189 188.295761,346.718189 C187.858819,346.718189 187.454242,346.702006 187.033483,346.653457 C189.34766,348.142298 192.098779,349 195.060278,349 C204.673013,349 209.932506,341.037937 209.932506,334.127772 C209.932506,333.90121 209.932506,333.674647 209.916323,333.448084 C210.935855,332.703664 211.825923,331.781229 212.537978,330.745514 Z" id="twitter"></path>
            </g>
        </g>
    </g>
</svg>